HIERARCHY
ROOT Hips
{
	OFFSET 0.000000 0.000000 0.000000
	CHANNELS 6 Xposition Yposition Zposition Xrotation Yrotation Zrotation
	JOINT LeftUpLeg_virtual
	{
		OFFSET 0.000000 0.000000 0.000000
		CHANNELS 3 Xrotation Yrotation Zrotation
		JOINT LeftUpLeg
		{
			OFFSET 10.205400 -3.823500 0.155100
			CHANNELS 3 Xrotation Yrotation Zrotation
			JOINT LeftLeg
			{
				OFFSET 0.708757 -12.982077 0.567790
				CHANNELS 3 Xrotation Yrotation Zrotation
				JOINT LeftFoot
				{
					OFFSET -0.708756 -10.717838 -2.184338
					CHANNELS 3 Xrotation Yrotation Zrotation
					JOINT LeftToeBase
					{
						OFFSET 0.108149 -7.191104 7.560241
						CHANNELS 3 Xrotation Yrotation Zrotation
						JOINT LeftToe_End
						{
							OFFSET 0.070230 0.081724 4.490308
							CHANNELS 3 Xrotation Yrotation Zrotation
							End Site
							{
								OFFSET 0 0 0
							}
						}
					}
				}
			}
		}
	}
	JOINT RightUpLeg_virtual
	{
		OFFSET 0.000000 0.000000 0.000000
		CHANNELS 3 Xrotation Yrotation Zrotation
		JOINT RightUpLeg
		{
			OFFSET -10.205400 -3.823500 0.005500
			CHANNELS 3 Xrotation Yrotation Zrotation
			JOINT RightLeg
			{
				OFFSET -0.708756 -12.982134 0.610632
				CHANNELS 3 Xrotation Yrotation Zrotation
				JOINT RightFoot
				{
					OFFSET 0.708754 -10.717769 -1.945823
					CHANNELS 3 Xrotation Yrotation Zrotation
					JOINT RightToeBase
					{
						OFFSET -0.108140 -7.191069 7.372968
						CHANNELS 3 Xrotation Yrotation Zrotation
						JOINT RightToe_End
						{
							OFFSET -0.070227 0.081735 4.479403
							CHANNELS 3 Xrotation Yrotation Zrotation
							End Site
							{
								OFFSET 0 0 0
							}
						}
					}
				}
			}
		}
	}
	JOINT Spine_virtual
	{
		OFFSET 0.000000 0.000000 0.000000
		CHANNELS 3 Xrotation Yrotation Zrotation
		JOINT Spine
		{
			OFFSET 0.000000 6.876099 0.125700
			CHANNELS 3 Xrotation Yrotation Zrotation
			JOINT Spine1
			{
				OFFSET 0.000000 5.730043 0.104720
				CHANNELS 3 Xrotation Yrotation Zrotation
				JOINT Spine1_split
				{
					OFFSET 0.000000 5.730043 0.104720
					CHANNELS 3 Xrotation Yrotation Zrotation
					JOINT Spine2
					{
						OFFSET 0.000000 5.730043 0.104720
						CHANNELS 3 Xrotation Yrotation Zrotation
						JOINT Neck_virtual
						{
							OFFSET 0.000000 0.000000 0.000000
							CHANNELS 3 Xrotation Yrotation Zrotation
							JOINT Neck
							{
								OFFSET 0.000000 10.314075 0.188496
								CHANNELS 3 Xrotation Yrotation Zrotation
								JOINT Head
								{
									OFFSET 0.000000 7.643700 -2.377400
									CHANNELS 3 Xrotation Yrotation Zrotation
									JOINT HeadTop_End
									{
										OFFSET 0.000000 43.788605 -13.619600
										CHANNELS 3 Xrotation Yrotation Zrotation
										End Site
										{
											OFFSET 0 0 0
										}
									}
								}
							}
						}
						JOINT LeftShoulder_virtual
						{
							OFFSET 0.000000 0.000000 0.000000
							CHANNELS 3 Xrotation Yrotation Zrotation
							JOINT LeftShoulder
							{
								OFFSET 2.196100 4.412489 0.087492
								CHANNELS 3 Xrotation Yrotation Zrotation
								JOINT LeftShoulder_split
								{
									OFFSET 2.196100 4.412489 0.087492
									CHANNELS 3 Xrotation Yrotation Zrotation
									JOINT LeftArm
									{
										OFFSET 8.771219 -2.981674 -0.026999
										CHANNELS 3 Xrotation Yrotation Zrotation
										JOINT LeftForeArm
										{
											OFFSET 8.512804 0.000000 -0.000000
											CHANNELS 3 Xrotation Yrotation Zrotation
											JOINT LeftHand
											{
												OFFSET 18.484802 0.000000 -0.000000
												CHANNELS 3 Xrotation Yrotation Zrotation
												End Site
												{
													OFFSET 0 0 0
												}
											}
										}
									}
								}
							}
						}
						JOINT RightShoulder_virtual
						{
							OFFSET 0.000000 0.000000 0.000000
							CHANNELS 3 Xrotation Yrotation Zrotation
							JOINT RightShoulder
							{
								OFFSET -2.196100 4.412496 0.070690
								CHANNELS 3 Xrotation Yrotation Zrotation
								JOINT RightShoulder_split
								{
									OFFSET -2.196100 4.412496 0.070690
									CHANNELS 3 Xrotation Yrotation Zrotation
									JOINT RightArm
									{
										OFFSET -8.771282 -2.981682 -0.094208
										CHANNELS 3 Xrotation Yrotation Zrotation
										JOINT RightForeArm
										{
											OFFSET -8.494598 0.000000 0.000000
											CHANNELS 3 Xrotation Yrotation Zrotation
											JOINT RightHand
											{
												OFFSET -18.483803 0.000000 0.000001
												CHANNELS 3 Xrotation Yrotation Zrotation
												End Site
												{
													OFFSET 0 0 0
												}
											}
										}
									}
								}
							}
						}
					}
				}
			}
		}
	}
}
MOTION
Frames: 4
Frame Time: 0.03333333
2.785848 33.401726 -4.480841 0.000000 0.000000 0.000000 7.214216 2.639455 -1.320255 -24.268195 35.433792 16.025270 27.309352 -12.167650 4.858248 -15.158510 1.432625 -18.632580 -2.883744 -7.415177 5.589019 0.000000 0.000000 0.000000 8.102569 1.212443 -1.860803 -12.794175 8.152266 3.290210 17.784604 4.793110 1.664630 -14.802295 -0.748174 13.782333 -6.173390 2.858205 -5.280447 0.000000 0.000000 0.000000 6.790029 13.844653 -4.403712 4.495026 -4.460906 2.511036 4.508749 4.683944 -0.062779 0.061012 -1.224798 0.144344 0.000000 0.000000 0.000000 3.957181 8.552585 1.162899 4.920919 24.109390 5.345060 -152.191354 -32.934414 -173.829339 0.000000 0.000000 0.000000 6.306931 3.614888 3.082875 2.177619 -13.060847 -12.845081 3.355808 -0.587165 -3.493127 14.891363 -11.693129 -45.562252 -6.207906 -34.097315 0.374682 0.000000 0.000000 0.000000 -1.148095 2.442869 0.190255 -2.975954 1.913181 14.597740 -5.384837 -6.108292 12.234796 23.185624 17.053920 24.428277 -8.006201 39.483100 46.706025 0.000000 0.000000 0.000000 
2.796524 33.200027 -4.980099 0.000000 0.000000 0.000000 7.336466 3.271941 -1.838526 -25.394877 36.505199 17.301057 27.776774 -11.452959 4.210132 -15.066624 1.800440 -17.834068 -1.847015 -7.256246 4.615444 0.000000 0.000000 0.000000 8.145211 1.704831 -2.289838 -14.474954 9.472062 3.904903 18.069605 5.456339 2.048785 -14.115187 -0.257771 12.979483 -6.920151 2.930017 -5.273255 0.000000 0.000000 0.000000 7.273480 12.801642 -4.255771 5.521682 -4.365399 2.359177 5.028442 4.369185 0.041851 0.105035 -0.722550 0.122400 0.000000 0.000000 0.000000 4.406857 8.159118 1.500992 4.029471 24.264338 5.608802 -152.759558 -31.699543 -173.838082 0.000000 0.000000 0.000000 6.621984 3.472990 2.936080 2.325675 -12.497872 -13.132537 3.398361 -1.900237 -2.143662 16.142966 -13.767963 -47.756147 -3.351358 -29.594660 1.489584 0.000000 0.000000 0.000000 -0.940808 2.267047 0.337091 -3.593177 3.168179 14.274966 -6.558687 -6.770633 11.149170 23.083673 17.869167 24.816758 -8.039319 39.425518 46.746610 0.000000 0.000000 0.000000 
2.696287 32.913773 -5.507591 0.000000 0.000000 0.000000 7.023970 2.116351 -3.007593 -29.055348 38.211685 21.820446 30.139340 -10.782454 3.341398 -15.218490 2.290554 -16.654639 -0.104772 -7.041493 3.404205 0.000000 0.000000 0.000000 7.590195 0.257634 -3.461000 -17.186002 9.869702 4.577399 19.199132 7.025323 2.708219 -11.875270 0.874186 14.226817 -8.673659 3.619882 -7.615934 0.000000 0.000000 0.000000 7.429439 9.797088 -4.510272 7.660916 -3.421119 2.719925 6.258240 3.950748 0.038978 0.063467 -0.174395 0.098903 0.000000 0.000000 0.000000 5.278982 7.660775 1.666061 2.725148 24.664604 5.493268 -154.446355 -29.826401 -172.696538 0.000000 0.000000 0.000000 7.477248 3.259186 2.325516 2.479952 -12.359774 -12.606613 3.419939 -2.275530 -0.733082 20.516669 -18.407701 -49.245480 -4.726775 -32.135074 0.179954 0.000000 0.000000 0.000000 0.140334 2.194140 0.406804 -4.721970 4.461128 12.917201 -6.999551 -7.683039 10.228919 23.172057 19.980579 26.074343 -9.995731 40.754711 48.678574 0.000000 0.000000 0.000000 
2.495932 32.723980 -6.018950 0.000000 0.000000 0.000000 6.231831 -0.571843 -4.477098 -34.020595 40.102902 28.342188 33.754279 -10.182260 2.503174 -15.856936 2.737457 -15.529478 0.554895 -6.967069 3.137906 0.000000 0.000000 0.000000 6.552492 -2.709299 -5.041220 -20.050847 9.315744 4.807047 20.967699 9.164632 3.185525 -9.448683 2.358416 17.380642 -9.957723 4.735997 -11.416053 0.000000 0.000000 0.000000 7.500503 5.367368 -5.090693 10.333118 -1.828137 3.310126 7.891356 3.547253 -0.029595 0.046911 0.258025 0.068743 0.000000 0.000000 0.000000 6.472213 7.194182 1.652165 1.175684 25.228571 5.124906 -156.793058 -27.766715 -170.691140 0.000000 0.000000 0.000000 8.630601 3.025736 1.464650 2.650086 -12.442167 -10.988514 3.806201 -1.794968 0.282721 27.734379 -23.016250 -49.350835 -11.578800 -43.955477 -4.987618 0.000000 0.000000 0.000000 1.921171 2.294359 0.412361 -6.201533 5.496155 10.782396 -7.287081 -9.003543 9.644292 23.436763 22.516292 27.601016 -14.809395 43.931736 53.075105 0.000000 0.000000 0.000000 
